<?xml version="1.0" encoding="utf-8"?>
<!-- Generator: Adobe Illustrator 21.0.0, SVG Export Plug-In . SVG Version: 6.00 Build 0)  -->
<svg version="1.1"
	 id="IPW" inkscape:version="0.91 r13725" sodipodi:docname="IPW.svg" xmlns:cc="http://creativecommons.org/ns#" xmlns:dc="http://purl.org/dc/elements/1.1/" xmlns:inkscape="http://www.inkscape.org/namespaces/inkscape" xmlns:rdf="http://www.w3.org/1999/02/22-rdf-syntax-ns#" xmlns:sodipodi="http://sodipodi.sourceforge.net/DTD/sodipodi-0.dtd" xmlns:svg="http://www.w3.org/2000/svg"
	 xmlns="http://www.w3.org/2000/svg" xmlns:xlink="http://www.w3.org/1999/xlink" x="0px" y="0px" viewBox="0 0 565.3 181.3"
	 style="enable-background:new 0 0 565.3 181.3;" xml:space="preserve">
<style type="text/css">
	.st0{stroke:#000000;stroke-linecap:round;stroke-linejoin:round;}
</style>
<path id="omtrek" inkscape:connector-curvature="0" class="st0" d="M376.6,0.5v2.6h-1.4v1.6h1.4v53.6h-1.2v2.5h-1v46.6h-4.1V77.1
	H370v-2.7h-2.5h-0.9v2.7h-0.7v30.3h-3.3v-1h2.1v-1.2h-2.1v-1h2.1V103h-2.1v-1.2h2.1v-1.2h-2.1v-1.1h2.1v-1.2h-2.1v-2h-0.9v-6h1.3v-1
	h-1.3v-1.5h1v-6h1.3v-3.3h-1.3v-1.7H349v1.7h-1.3v3.3h1.3v6h1.9v1.5h-2.2v1h2.2v6h-1.4v2h-2.2v1.2h2.2v1.1h-2.2v1.2h2.2v1.2h-2.2
	v1.2h2.2v1h-2.2v1.2h2.2v1.5c-10.8,0.7-20.2,2.1-23.4,3.4c-1.3,1-2.7,2.2-4.3,4.4c5.1,4.1,11.3,6.1,18,7.3l-0.3,34.5H234.1
	c-17.5,1.2-35.6,2.7-54.9,4.8v-3.8h-4.4v4.3c-18.8,2.1-38.8,4.9-60.7,8.7v-4H111v4.5c-16.8,2.9-34.7,6.4-53.9,10.6l-3-17l2.3-0.1
	c0.9-0.3,1.8-0.7,1.8-2.5c-0.7-2.3-2.4-2.3-3.9-2.7H54v-4.1h-3.4v4.1L34.7,160c-6.8,0.2-10.6,2.3-10.6,2.6s1.6,0.6,2.3,0.9l3.9,0.4
	c-2.9,0.5-5,0.6-5.5,0.8v27.8l-12.2,4.1v7.1c3.6,1.9,7.3,3.7,11.6,4.9l0.7,0.2v26.9c1.4,0.4,17.1,5.1,23.4,0c0.9-0.8,2.3-9.8,3.7-19
	l0.2,0.1c53.6,12.8,108.5,15.6,163.5,18.2l233.4,0.2c48.7,0,92.9-6.6,101.7-9.6c6.7-2.8,10.4-6.6,12.6-15.3
	c2.7-7.5,1.5-16.4-0.9-24.1c-1.1-3.4-10.4-7.8-25.9-12.1v-5.4h-3v4.6c-2.4-0.6-5.8-1.4-8.4-2v-2.5h-4.3v1.5c-2.6-1.2-4.1-3-4.4-4.5
	v-9.2c0-0.7-1.1-2.8-1.9-2.8l-1.9-0.1c-0.9,0-2.7,1.9-2.7,2.3v8.2c-0.9,2.3-4.2,2.1-7,2.6c-13.1-2.3-28.1-4.3-44.6-5.8v-4.1h-5.1
	v3.6c-7.9-0.7-16.2-1.3-24.7-1.8c0-15.3-0.5-31.2-2.1-48c-0.1-1-3-1.7-6.7-2.3v-1.9h-1.4v-2.1h-5.3v3.3c-2.2-0.1-4.3-0.2-6-0.2h-6.7
	V83.8h-0.8v-20h1.2V59h-1.2v-3.7h-1.3v-3.7h-1.6v3.7h-1.4v28.5H394v23.6h-5V79.5h-0.7V66.7h-1.7v-1.3h-0.7v1.3h-0.3v12.8h-1.2v27.8
	h-2.7V67.8h1.1v-3.4h1.2v-5.8h-0.9l0.1-0.4l-0.4-0.7v-0.4l1-0.9V55h1.2v-1.5h-1.2V51h-1.3l-0.1-2.4l-0.2-0.7l-0.2,0.7v2.3h-1.3v2.5
	h-1.4v1.4h1.3v1.4l1.2,0.7l0.1,0.5l-0.5,0.6l0.5,0.4h-1.3v2H379v-2.3h-0.7V4.7h1.2V3.1h-1.2V0.5H376.6L376.6,0.5z M367.5,74.4
	l1.2-0.1V73l4-2.3v-1h-1.5l0.7,0.4v0.7l-4.2,1.5v-5h-4.8l-0.2,0.3h2.1v2.3h-1.7l4.2,3.3L367.5,74.4L367.5,74.4z M355.4,87.6h1.9v1.5
	h-1.9V87.6z M355.4,90h1.9v6h-1.9V90z M52.5,152.8c-0.6,0-1.2,0-1.7,0.2l-16.2,6.3l2.9,0.4l13.4-5.6c1-0.3,1.9-0.3,2.9-0.1
	c0.9,0.2,1.5,0.7,1.7,1.7v2c-0.1,1-0.4,1.8-1.3,2.2l1.3,0.3c0.5-0.4,1-2,1-2.5v-2c0-1.3-1.4-2.4-2.4-2.7
	C53.7,152.9,53.1,152.8,52.5,152.8z M48.3,165.2l2.3,0.1l3.1,17.9c-0.4,0.1-0.9,0.2-1.3,0.3l-1.1,0.3L48.3,165.2z M7.5,183.1
	c-0.5,0.3-1.1,0.6-1.5,1.7l-0.1,12c-2.1,0.4-3.7,1.1-5.4,1.9v2.2c1.7,1,3.7,2,5.4,2.1l-0.1,9.6c0.2,0.6,1,1.5,1.5,1.7
	c0.9-0.7,4.3-6.4,4.8-10.7v-7.1c-0.3-2.9-1-6.3-2.1-10.2C9.5,184.8,8.1,183.3,7.5,183.1z"/>
</svg>
