<?xml version="1.0" encoding="utf-8"?>
<!-- Generator: Adobe Illustrator 21.0.0, SVG Export Plug-In . SVG Version: 6.00 Build 0)  -->
<svg version="1.1"
	 id="LCF" inkscape:version="0.91 r13725" sodipodi:docname="LCF.svg" xmlns:cc="http://creativecommons.org/ns#" xmlns:dc="http://purl.org/dc/elements/1.1/" xmlns:inkscape="http://www.inkscape.org/namespaces/inkscape" xmlns:rdf="http://www.w3.org/1999/02/22-rdf-syntax-ns#" xmlns:sodipodi="http://sodipodi.sourceforge.net/DTD/sodipodi-0.dtd" xmlns:svg="http://www.w3.org/2000/svg"
	 xmlns="http://www.w3.org/2000/svg" xmlns:xlink="http://www.w3.org/1999/xlink" x="0px" y="0px" viewBox="0 0 1215 283.3"
	 style="enable-background:new 0 0 1215 283.3;" xml:space="preserve">
<style type="text/css">
	.st0{stroke:#9540BF;stroke-linecap:round;stroke-linejoin:round;fill:#9540BF}
</style>
<path id="omtrek" inkscape:connector-curvature="0" class="st0" d="M700.3,0.5l-1.4,0.1V29h-1l-0.3,2.4l-2,0.3v4.1h0.3v0.4l2.5,0.3
	V40l-1.3,0.3v3.2l-1.5,2l-12.5-0.1c-2.4,3.6-3.3,4.4-6,11.4c-2,6.2-0.8,10.1-0.1,14.2l-4.2,14.9l5.3,7.3l-101,1.1l6.9-45.4
	l-6.5,39.2l6-39.5l-7.6,46l-81.5,0.9l-0.4,0.2h11.4L495,95.5l-0.4,0.2l81.1-0.3l-6,36.6h-2.2l-1.1,2.4l-23.6-0.1l-49-37.7l0.8-0.7
	l-0.9,0.3l-0.2,0.2l0,0l0,0l-0.1,0.1l-0.3-0.2l0.8-0.7l-0.9,0.3l-0.2,0.2l0,0l0,0l-0.6,0.8l-0.4,0.3v0.2l-0.4,0.5l1,70.4h-0.8
	l-1.6-5.6l-0.8-1.3l-19.2-58l10.1,32.3l-10.8-32.5l18.3,58.8l-0.9,0.7l0.1,3.6l2.2,2.9l-3.4-0.1l-2.9,7.1h0.7v0.1l8.1,0.3L488,191
	h-25.5l-1.7-7.2h-0.7v-0.1H460l0.1-3.5l-6.9-28h-0.7V152h-0.9l-4.4-17.1h-0.7v-0.2l-9.4-0.1l-4.9,17.7h-2.7l-5.6-48.7l5.4,48.6h-0.5
	l-5.6-48.9l5.4,48.7l-5,0.3l-4.1,16h-1.3c-0.1-1.9-6.8-64.6-6.8-64.6l6.8,64.6h-0.8c0,0,0,0.1,0,0.2v-0.2l-1.7,0.1l-1.6-2.2h-0.7
	l-0.1-0.1h-7.2l-2,2.2l-5.4-0.2l-1.6-1.9l-0.1-6.6l0.2-0.7l1.7,1.9c0,0,0.3-0.3,0.4-0.4l0.5,0.5c0,0,2.4-2.4,3.1-2.8s-7.6-8-7.6-8
	l-0.3,0.3c-0.1-0.1-0.5-0.5-0.5-0.5l-3.1,2.8l2.5,2.7l-2.7,2.2l1.4,1.1l-0.3,7l-1.3,2.1l-13.8,0.1l2.6-6.9
	c1.4-4.3-2.6-12.4-8.8-13.1c-0.6-0.1-1.2-0.2-1.9-0.2c-2.5,0-2.5,0.1-4.1,1l-2.5-7.7l-0.8-2.9l-2-1.1l2.2-2H383l2.9-1.4l-9.2-28.7
	h-0.8l-0.1-0.2l-44.6-0.3l-3.2,3.4l2,3.1l-5.5,10.7l4.1,12.6l3.2,2.8l-2,1.3l-3.1,9.7l-3.4,3.5l-14.4,0.3l-3.4,16.4l-14.9-0.1
	l-3.3-3.9V162l2.1-1.4v-9.7l1.5-1.8l-2.2-1.3l-0.3-2l3.1-2.2l0.1-1.8l-1.3-1.3h-0.8l-0.2-0.2H289l-0.6-1.2l-2.2-0.4l0,0l-1-0.2
	l-2,1.5v2l1.3,0.7l0.3,3.8l-0.2,0.1l-3.6-2.7l-0.8-2.9c-0.3,0.2-0.6,0.3-0.8,0.6l-0.2-0.8c-1.3,0.6-1.8,1.8-3.1,4.6
	c0.3,2.3,1.2,4.6,3.4,5.7l0.2-0.4c0.3,0.2,0.6,0.4,0.9,0.6l0.6-1.6l1.6,0.6l-0.4,1.4l-4.8-0.1l-1.4,0.4v1.5l-0.4,0.2h-2.3l-0.1,0.8
	l-1.1,0.4h-14v3.8h1.1v0.1h13l0.8,0.3l0.1,0.9h1.7l-0.9,1.5v2.7l-3.1,3.5l-6.4-0.1l-2.7,15.8h-1.7l-1.1,2.8l0.6,2.8l-4.7,26.1
	l-8.6-0.1l3,4.4h1.1l0,0l2.6,0.1l-0.7,7.6c-0.1,4.6-14.8,14.5-29.6,14.6L80,242.2l-48.4,0.2h-1.2h-0.3l25.8,39.5
	c2.4,4.9,4.6,5.7,4.6,5.7l9.4,1.5L77,326h18.6l0.1-0.2H97l10.2-30.8l30,4.8l-8.4,15.4l-1,0.1l0.1,8.2l19.2-1.4l1.5-1.8v-0.9
	l62.4-1.9l2,2.1h9.1c2.4,2,4.5,4.2,5.8,6.6h406V326h0.2v0.1l398.2-0.5c2.6,4.4,5.3,12.1,7.8,13.2c0.2,0.1,0.4,0.2,0.6,0.3
	c3.2,1.2,9.4,1.5,17.4,1.4l41,0.3c6.9,0.1,16.4-6.6,16.4-12.9c-0.2-9-3.7-7.6-3.1-11.2c1.5-10,7.2-18.3,12.9-26.4
	c12.5-14.7,24.8-29.4,39.8-43.1c-1.8-0.3-2-1.5-2.2-2.8c3-2.2,5.7-4.8,9.9-5.3l1.8,0.1l0,0h0.6c11.9-12.4,27.1-22.3,39.7-32.9h-13.2
	l-0.4-13.4h-0.9l-0.1-36.8h-0.7v0.2h-0.7l0.2,36.6h-0.5v0.1h-0.7v2.3l-5.4,11l-165.8,0.2l-5.1-15.5l37.9-0.5v-0.1h0.4l-0.1-2.4
	l-40.4-0.5l-1.6-1.7l-27.2-8.3l-6.2,0.4l-0.1,0.1h-0.2l-7.6,10.1v13.6l6,0.3l4.2,5.7l-0.4,4.6l-3.3-0.1v0.1h-0.2l-0.4,0.7l1.5,0.1
	l-0.1,3.5l2.1,0.4l-84.6,0.5c-3,0-21.4-6.5-23.6-8.7l-8.7-8.4l0,0h0.1l-1.9-9.6l2.6,0.1l15.1-5.5l6.3-2.5h-0.1l0.2-0.1l-4.3-0.4
	l-0.1-3.5L880,179l1.7-2.4l0,0l0.1-0.1v-2.9l1.2-0.8v-0.1h0.1l0.3-2.1l-2.6-2.1V167c0.6-0.3,1.6-0.1,1.6-0.5l0.1-0.1
	c0-0.4-1-0.2-1.6-0.4l-0.1-4.5c0-0.9-1.5-2.9-2.4-2.9h-2c-0.6,0-2.2,1.6-2.5,2.6c-0.1,0.2-0.1,0.3-0.1,0.5l-0.1,4.5
	c-0.9,0-1.8-0.1-1.7,0.3c0,0-0.1,0.1,0,0.1c0,0.4,0.7,0.2,1.7,0.2l0.6,1.4l-0.6,0.6h-2.2v0.1l0,0L871,178l3.4,1.3l2.9,0.3l-12.8,0.2
	l-5.6-21.7l2.2-9.7l2.4-3.9l0,0l0.1-0.1l-1.7-1.4h-22v-2.6l0,0v-0.2h-1.4v-1h8.6V139v-3.7v-0.2h-21.3v3.9l0,0v0.2h8.8v1h-1.3v2.8
	H818v-6.1h-0.1v-0.2h-3.2v6.2H806v-5.1h-0.1v-0.2h-1.5V133h1.7v-8H806v-0.2h-4.4v7.9h-0.9v5.3h0.1v0.2h1v-5h1.5v4.6h-1.4v5.3h-9.4
	l0.1-2.5l5-0.1l0.8-7.3c0.1-0.7-0.1-1.4-0.4-2.1c-0.9-2.2-3.3-4.3-4.9-4.3h-2.2c-3.7,0.1-6.2,4.8-5.8,6.6l1.2,6.8h0.1v0.2h2.9
	l-0.1,2.7h-13.7l-2.6-7.2h-0.1l-0.1-0.2l-36.4,0.6l-3.5-3.6l-0.1-3.8h-0.2v-0.2h-1.4l6.5-15.8v-3.5v-1.1l-0.2-0.2V108l-0.9-0.8
	l1.2-0.9v-3.1l-0.2-0.2l0,0l-0.5-0.5v-1.6h-0.2v-0.3h-3.5v1.3l-1.4,0.7l-0.1,3.5l0.2,0.1v0.1l1.3,0.6l-0.1,0.6l-1.3,2.5h-8.5
	l-3.7-13.6l1.3-2.7l24.3-1.1l0.3-2h-0.2v-0.3h-1l-0.1-1.7h1.3l-0.1-0.6h-0.2v-0.3h-1v-0.8h-0.2v-0.3h-0.5v1.1l-1.5,0.1v0.6h0.2v0.3
	h1.3v1.7l-20.5,0.1l3.3-4.3l-2.8-12.5c0.1-5.6,0.8-11-0.4-15c-0.9-2.4-2.2-5.8-4-8.4c-0.5-0.8-1.1-1.6-1.7-2.2l-0.7-2h-0.1l-0.1-0.4
	h-5.2l-0.1-4.7l1.7-2.2l-0.3-0.3v-0.1l-1.4-1.5l-4.3-0.1l-1.5,1l0.1,2l0.2,0.1v0.2l1.4,0.8l0.1,4.8l-3.1-0.3l-1.3-1.5v-3.3l-0.3-0.1
	v-0.3l-1.1-0.2l0.3-4h0.3l1.9,0.4v-3.9l-0.3-0.1V32l-1.3-0.6V29h-0.3v-0.4h-0.7L701,2l0-0.4l0,0L700.3,0.5L700.3,0.5L700.3,0.5z
	 M744.2,92.7h-0.6v1.4l-1.5,0.1l-0.1,0.6h0.2v0.3h1.3v0.7h0.2v0.3h0.7v-0.9h1.4v-0.6h-0.2v-0.3l-1.2-0.1v-1.1h-0.2L744.2,92.7
	L744.2,92.7L744.2,92.7z M678.5,93.7l1.3,1.7l-0.1,3.5c-3,0.8-10.5,10.2-10.4,15c0.1,3.9,2.4,9.8,5.6,11.8l-0.1,2.5h-2.4l-6.7,30.3
	l-87.2-0.1l-5.3-26l-0.5-0.1v-0.1l-0.9-0.1l5.3-36.6L678.5,93.7L678.5,93.7z M493.1,96.3c0,0,0.3,0.2,0.3,0.3l-0.5,0.7l0.7-0.5
	c1.4,1.2,43.3,36.5,44.3,37.6h0.4l0.2,0.2h0.3l-7.6,33.8l-38,0.1l-0.3-38.5l-0.3-32.2l-0.4,0.5l0.9,70.2h-0.6l-0.3-38.7l-0.3-32.3
	l0.4-0.6L493.1,96.3L493.1,96.3z M492.5,97.8l0.4-0.6l-0.4,0.3V97.8L492.5,97.8z M493.7,96.5c0,0,2.5,2.1,2.9,2.4l-3-2.3L493.7,96.5
	z M410.5,103.7l6.8,64.8l0,0C417.2,167.1,410.5,103.7,410.5,103.7L410.5,103.7z M808.2,130.2L808.2,130.2v3.8h0.1v0.2h6.1v2.2h0.1
	v0.2l3.7-0.1l0.2-2.3h6.2v-3.8l0,0v-0.2L808.2,130.2L808.2,130.2z M806.1,132.7v5.3h0.1v0.2h1V133h-0.1v-0.2h-1V132.7z
	 M1199.4,176.7l0.1,16.6l0,0L1199.4,176.7z M307.4,183.6l37.5,0.2h-45.4L307.4,183.6z M44.9,191.6l-2.2,2.1l7.7,7.7h-3.5l-1.5,2
	l2.8,2.1v2.2l-5.3,4.6l1.3,1.7l5.6-4.6l4.6,9v5.5l1.1,1.3l7.3,0.1l0.8-2l31.8,1.5c4.7,4.3,9.7,8.5,19.2,12.8h10.8
	c-0.7,0.5-1.1,1.3-1.1,2.1c0,1.5,1.3,2.7,2.8,2.7c1.5,0,2.8-1.2,2.8-2.7c0-0.8-0.4-1.6-1.1-2.1h0.5l48.4-0.1
	c-0.7,0.4-1.2,1.1-1.2,1.9c0,1.2,1.1,2.2,2.4,2.2c1.3,0,2.4-1,2.4-2.2c0-0.8-0.5-1.5-1.2-1.9h4.8l1.3-0.7c2.6-1.4,1.7-1.6,3.2-1.5
	l0.3-0.8l0.1-1.4l0.3-1.4c-1.7-3-5.5-5.9-8.7-7c-3.2-3.4-5.2-4.8-7.3-6.3l-8.7-4.3V212l-2.8-0.1l0.1,2c-0.9-0.9-19-5.8-18.2-4.5
	c0.3,0.5-1.5-2.4-1.5-2.4h-2.7l-0.1-1.5c21.3-0.5,42.6,2.3,63.9,5.5l1.1-1c-21.3-2.7-42.6-5.3-64.6-5.8l0.1-1.3l1.3-0.3l1-1h-8.3
	l0.3,1.3h2.1v1.3c-22.2,0.2-43.3,2.9-64.4,5.6l0.6,1c20.8-3.1,41.7-5.9,63.7-5.3l0.3,1.8l-8.7,0.3c-9.5,2.3-18.5,4.4-22,7.2H66.8
	l-1.1-2.2l-8-7.3L58,204l-1.7-1l9-9.3l-1.8-1.7l-9.1,9.5L44.9,191.6L44.9,191.6z M487.8,193.7l-3.3,13.8h-12.8l-4.6-0.1
	c-0.6-0.8-1.1-1.5-1.3-2.2l-2.7-11.4h0.2v0.1L487.8,193.7L487.8,193.7z M1197.6,196.5v0.5l-4.8,9.8h-0.6L1197.6,196.5L1197.6,196.5z
	 M1197.7,197.6l0.1,9.1h-4.8L1197.7,197.6L1197.7,197.6z M18.6,209.8l-1.3,0.4c-5.7,2.4-11.1,7.5-16.8,5.9c2.6,4.3,3.2,9.2,2.8,14.3
	c3.2-2.5,6-3.1,8.8-4.7c2.6-1.5,5.6-3.7,9.1-2.8l8.7,19.8l0.4-0.7L18.6,209.8L18.6,209.8z M120.4,300.3c-0.5,0-0.9,0.4-1.2,0.9
	c-0.4,6.2-1.3,12.5-2.4,13.6c-1.9,0.9-3.6,1.9-4.5,3.4l0.2,4.6c1.1,1.7,2.3,2.2,3.6,2.8c1.1,1,3.3,7.9,4.2,13.9l3.1,0.4
	c2.3-5.1,3-10.3,3.8-15.5l-0.4-8.9c-0.9-5.2-2.1-10.3-5-14.7C121.1,300.5,120.7,300.3,120.4,300.3z M151.3,302.7l59.2,9.5
	c0.3,0.2,0.6,0.4,0.9,0.6l-0.8,0.6l-62.4,2.4v0.1H148v-0.2l-1.4-1.3l-3.3,0.2L151.3,302.7L151.3,302.7z"/>
</svg>
