<?xml version="1.0" encoding="utf-8"?>
<!-- Generator: Adobe Illustrator 21.0.0, SVG Export Plug-In . SVG Version: 6.00 Build 0)  -->
<svg version="1.1"
	 id="MFF" inkscape:version="0.91 r13725" sodipodi:docname="MFF.svg" xmlns:cc="http://creativecommons.org/ns#" xmlns:dc="http://purl.org/dc/elements/1.1/" xmlns:inkscape="http://www.inkscape.org/namespaces/inkscape" xmlns:rdf="http://www.w3.org/1999/02/22-rdf-syntax-ns#" xmlns:sodipodi="http://sodipodi.sourceforge.net/DTD/sodipodi-0.dtd" xmlns:svg="http://www.w3.org/2000/svg"
	 xmlns="http://www.w3.org/2000/svg" xmlns:xlink="http://www.w3.org/1999/xlink" x="0px" y="0px" viewBox="0 0 1015.1 272.3"
	 style="enable-background:new 0 0 1015.1 272.3;" xml:space="preserve">
<path id="omtrek" d="M1013.8,210.6l-0.6-0.6l-0.4-21h-1.1l-0.3-18.3c0.6-0.2,1.9-0.7,1.8-1h-3.4c-1,0.4,0.7,0.6,1.1,0.9l-0.1,18.3
	l-1.1,0.1l-0.1,7.6l-10.5,18.7l-60.6,4.8v-4.9h1.1c0.1,0,0.1-0.1,0.1-0.1V214c0-0.1-0.1-0.1-0.1-0.1h-6.4c-0.1,0-0.1,0.1-0.1,0.1
	v1.1c0,0.1,0.1,0.1,0.1,0.1h1.3v5.2l-3.4,0.3v-5.2h1.1c0.1,0,0.1-0.1,0.1-0.1v-1.1c0-0.1-0.1-0.1-0.1-0.1h-6.4
	c-0.1,0-0.1,0.1-0.1,0.1v1.1c0,0.1,0.1,0.1,0.1,0.1h1.3v5.2c0,0.1,0,0.2,0.1,0.3l-82.8,6.5l5.2-0.6l-2.9-0.9v-1.2l3.5-1.5l-0.4-0.9
	l-5.9,0.1v-1.8l3.7,0.1l-0.2-4.9l2.5,0.1l0.4,0.6l-1.9,1.8l0.5,0.6c0,0,1.9-1.8,3.3-1.9c1.3-0.1,4.4,2.1,4.4,2.1l0.7-0.2l-3.1-2.2
	l-0.1-2l4.4,0.1c-0.3,0.1-0.2,0.9-0.2,1.5h1.6V215l22,0.2v-1.9l-22.1-0.1l0.1-1.4h-1.6l-0.1,1.6h-3.9V212l-6.2-0.1l-0.1-0.7
	c-1.5-3.9-5.5-8-11.6-8c-4.6-0.3-10.3,3.2-11.4,7.6l-0.1,1.9l-1.2,0.1l0.1,4.7l1.1,0.1l0.1,3.5l6.3-0.1l-0.1,1.8h-4.1
	c0,0.4-0.6,0.5,1.8,2.1l0.4,1.4l-3-0.1L823,229c0,0,0.2,0,0.5,0l-39.3,3.1l0.2-30.5H776l-16.3,9l-30.6,0.1l-0.5-2.1h0.4l-0.1-13h1.4
	c0.4,0,1.6-0.5,1.6-1.2c0-1-1.2-1.3-1.6-1.3l-3.2-0.1v-1.5h-1.6l0.1-5.7h3.5v-5.4H726V179l-2.1-0.2l-0.1-0.5l2.2-1.5h-3l-0.3,0.5
	l0.1-7.7l4.3-8.4l0.1-2.9h-4.9v-2.6l0,0l0.9-1.2v-0.6h5.1v-3.6h-14v3.6h5.1v0.7l1,1.1v2.6l-15.5-0.1V155h1v-3.1h-1.6l0.1-1h7.8v-4.1
	h-19.3v4.1h8.1v1h-1.7v3.1h1.3v3.1l-28.3-0.3l0.1,14.5l-11.6-0.2l-7.9-38.8h-4.3l-2.8-9.2l1.1-1.9l3.6,3c2.6-2.1,4.5-4.3,5.3-7.4
	c-1.6-4-3.3-5.5-5.5-7.3l-0.3,3l-2.3,1.1l-0.2,2l-6.4,6.1l2.9,0.2l-0.2,1.4l-1.1,0.5l-2.8,8.4h-12.3l6.6-34.6l-6.1-28.8l13.3-0.3
	l1.4-2.4L626.5,67l-1.3-8.6H623l4-7.3l-6.8-0.1l-1-1.4l0.1-3.9h10.8l2.7-3.2l-5.2-9.5l-23.7-0.1c-2.4,4.1-6.8,9.1-1.9,12.8h7.8v7
	l1.6,0.1l-0.1,4.8l-2.7,0.1l-3,9.1L592,67V53.7h-1.4V7.9h1.5v-4h-1.5V0H587v53.7h-1.1v13.2h-6.3l0.5,2.5l6.9,0.1v9.9h1v9.4h1.5v-9.4
	h1.3v-9.9l5.8,0.1l-6.2,29.3l6.5,34.4h-22.5l-2.8-8.4l-1.1-0.5l-0.2-1.4l2.9-0.2l-6.4-6.1l-0.2-2l-2.3-1.2l-0.3-3
	c-2.1,1.8-3.8,3.3-5.5,7.3c0.8,3.1,2.7,5.3,5.3,7.4l3.6-3l1.1,1.9l-2.8,9.2h-8.6l-0.2,2.7l16.7,0.3l-0.7,0.2l14.9,15.2l-2.3,20.2
	h-4.4l0.4,16.5l-2.1,2.5h-5.6v-11.5l-33.8-0.2V193h-5.2l0.2,6.1h-14.6v-5.9h-2.1l-1.3-10.8l14.2-6.9c0.5-0.3,1.5-1.8,1.5-2.6
	c-0.6-1.2-2.1-0.5-3-0.5l-13.2,6.7l-1.4-12.1l-54.1-0.4l5.4,4L455.8,193h-12.5l0.4,21.7h-4.6l-0.1-12.8l1.5-0.7v-10.9h-1.4l0.1-6.6
	c-0.9-1.6-1.8-2.3-2.9-2.1c-0.8,0-1.6-0.1-2.6,2l-0.1,6.8l-2,0.1c0,0,0.3-6.5-0.1-6.6c0.1-0.5-1.9-2.8-2.8-2.2
	c-1.1-0.1-1.8,0.9-2.5,2.2v6.5l-1.5,0.1l-0.1,10.7l1.7,1l-0.1,12.7h-4.7l-0.1-12.8l1.7-0.9l-0.1-10.7l-1.5-0.1v-6.5
	c-0.8-1.3-1.4-2.3-2.5-2.2c-1-0.6-2.9,1.7-2.8,2.2c-0.3,0.1-0.1,6.6-0.1,6.6l-2-0.1l-0.1-6.8c-1-2.1-1.8-2-2.6-2
	c-1.1-0.2-2,0.5-2.8,2.1l0.1,6.6h-1.4v10.9l1.5,0.7l-0.1,13H408l-3.2,23.7h-14.4l0.2-18.1l-1.3-1.5v-19.2l-3.4-0.1v-12.2
	c1,0,1.9-0.1,3-0.2c0.8,0,1.2-0.5,1.4-1c0.4-3.3,0.3-5.5,0.1-7.5c-0.8-1.4-1.5-2.9-3.8-4.3c-1.3-0.2-2.4-0.6-5,0
	c-2.5,1.3-3.1,3.1-3.8,4.3c-0.3,2-0.3,4.6-0.1,7.5c0.1,0.7,0.7,1,1.5,1.2c1,0,1.9,0.1,2.9,0.1v12.1l-15-0.2v-1.9h-1.2V185h-0.4
	v-27.5h0.8l2.5-1.9l6.9-0.6l-0.1-1.5l-7.9-4.4h-1.9l0.1,4.6l0.6,0.7l-0.4,1.5h-0.7v-26.7h-1V156l-11.7,0.1c2.2-1.8,2.7-4.1,3-5.9
	c0.5-2.9,0.2-5.4-0.1-7.9c-1.1-2.7-2.8-4.3-4.5-5.6l-1.8-0.1v-1.3l-1.9,0.1v1.4l-1.8,0.4l-1-1l0.9-0.1l0.1-0.8l-1.6,0.1v-6.1
	l-0.8-0.1v6.2h-1.8l0.1,0.8l0.9,0.2l0.5,1.2l1.6,0.7c-1.7,1.1-2.7,2.2-3.7,3.3l-0.8,0.1c-2.9,3.3-3.5,3.8-4.3,5.2l-4.5,0.1l-0.1,5.4
	h4.5v0.9c1.1,1.7,2.4,3,3.9,4.1l0.1,1.4l5.1,0.1l0.1,3.6h1.2v3.2l-4.8-0.1v0.9h-7.4c-0.4,0-0.7,0.3-0.7,0.7c0,0.3,0.3,0.6,0.6,0.7
	c-0.2,0.2-0.3,0.5-0.3,0.8v9.3c0,0.6,0.5,1,1,1h1.7c0.6,0,1-0.5,1-1v-9.3c0-0.3-0.1-0.6-0.3-0.8h4.2l-7.2,25.1l-9,0.2l-2.9-6.5
	l-33.5,0.3v-3.3h-1.2v-12.5h-0.4v-55.8h-1v55.8h-0.4v12.5h-1.1v3.3l-8.4,0.1v-3.4h-1.2v-12.5h-0.4v-55.8h-1v55.8H273v12.5h-1.1v3.4
	h-7.1v-3.5h-1.2v-12.5h-0.4v-55.8h-1v55.8h-0.4v12.5h-1.1v3.5l-13.1,0.1l-2.5-2.9h-5.2l-2.8-2.6v-1h3l-0.3-19.8
	c0.3-0.5,0.6-1.1,1.5-1.6c0.5-0.8,0.3-1.9,0.1-2.9c-0.5-0.9-1.2-1.1-1.7-1.2h-3.5c-1.2,0.5-1.9,1.3-1.6,2.8c1.3,1.7,2,1,3,1.5
	l0.4,2.7l-1.5,2.2l-3.5-3.5l-0.1-5.3c-1.3,1.4-2.5,2.9-3.8,5.7c0.7,1.9,1.7,3.8,3.5,5.7l-1.6,0.8l-0.3,1l-7.7,2.4l-11,0.1v1.9h10.3
	l6.6,1.2l-2,4.1v2.2l3.3,0.1v0.8l-3.5,2.5l-4.5,0.1l-1.7,2.3l-3.8-0.2l-4.8,51.7h-62.6c0.6-0.2,1-0.7,1-1.3c0-0.4-0.2-0.7-0.5-1
	l0.2-0.2l-0.3-0.5l1.1-1.3l-0.6-1.4c2.4-0.5,4.5-0.4,7.5-2.6c1.3-1.5,0.8-2.6,0.3-3.7c-1.9-1.7-4.8-3.8-7.1-4.8
	c-1.2-1.1-1.6-0.7-5.1-4.6l-1.4-0.7c-8.3-5.6-15.6-7.2-23.2-8.5h-1.6l-2.7-2.6h-3.7v-0.1v-1.1l63.7,5.1l0.2-2l-63.8-5.1v-1.8
	l2.6-0.3H107l2.8,0.3v1.6L45,196.5l-0.2,2l64.9,5.2v1.5h-6c-15.4,3.8-18.4,4.8-24.3,6.9H36.9c1.8-2.3,2.8-5.1,2.8-8.2
	c0-7.4-6-13.3-13.3-13.3c-7.4,0-13.3,6-13.3,13.3c0,6.8,5,12.3,11.5,13.2l-0.1,0.2l1.2,0.8l-4.2,0.7l6,0.7v0.8l37.3-0.3
	c4.3,3.6,7.3,7.2,14.5,10.5l5.7,2l11.3,0.2l1.5,1.6l-0.8,0.9c-0.3-0.2-0.7-0.3-1.1-0.3c-1,0-1.9,0.8-1.9,1.8c0,0.7,0.4,1.3,0.9,1.6
	L9,238.2l-7.5-13.7v-18.1H0.7l0.2,31.8l10.7,23.6l10,13.4l5.6,4.8l8.1,0.4l1.9,1.3l5.2,32l16.9-0.2l2.3-6.3l3.1-25.1l31.3,1.3
	l0.1,0.3h-0.4l-5.3,16.6l-2.2,2.7l-1.4-0.1l-0.2-6c-1.2-2.4-2.8-4.4-6-5.3c-1.7,0.1-2.3,1.7-2.9,3.5l-0.6,4.3l-0.8,0.4l-0.4,4.4
	l-3.7,0.2l-2.3,2.7l2.7,2.6h3.2l0.7,1.3c0,0-0.5,3.5-0.2,3.8c0.3,0.4,1.1,1.2,1.1,1.2l0.3,2.4c0.8,1.9,2.1,2.5,3.3,3.2
	c1.6-0.1,3.1-1.1,4.5-2.5l1.4-3.3l-0.2-5.7l12.8-0.1l0.1-1.3l39.5-3.8c1,1,1.9,1.9,2.8,2.9l28.7-0.2l1.7,1.3l707.6-0.6
	c1.7,0.1,2.3,1.3,2.7,2.7l0.6,3.8c0.7,1.4,0.9,2.9,3.3,4c11.6,4,21.1,3.9,33.6,4.8c12.6,0.6,25.4-1.7,32.8-7.3
	c4.5-3.4,5.3-7.6,6.5-12.3c1.2-10.5,4.9-19.1,7.9-26.9c13.4-24.4,28.5-40.4,42.8-56l5-5.6L1013.8,210.6z M344.4,140.2h1.3v3.1h-1.3
	V140.2z M341.8,143.7h1.3v3.1h-1.3V143.7z M343.2,147.6v3.1h-1.3v-3.1H343.2z M340.4,154h-2.1v-2.4h2.1V154z M340.5,147.8h-2.1v-2.4
	h2.1V147.8z M343.5,155.3H341V154h2.5V155.3z M344.4,143.8h1.3v3.1h-1.3V143.8z M345.7,154.5h-1.3v-3.1h1.3V154.5z M345.7,150.7
	h-1.3v-3.1h1.3V150.7z M1.5,238.2V226l6.4,12.2H1.5z M99.1,304.6l0.1-1.5l-3.1-2l9.1-16.4l6.9,0.9c8.7,4,16.6,9.9,22.8,15.6
	L99.1,304.6z M96.9,238.3c0.6-0.3,0.9-0.9,0.9-1.6c0-0.4-0.2-0.8-0.4-1.2l3.3-2.8l7,0.1l1.4,1l15.3,0.2h-0.1v0.5h0.5v1.8l15.2,0.1
	l0.3-3.9l8.2,0.2l1.6,2.1l-0.4,0.5l0,0H149l-0.3,0.4c0,0-0.1,0-0.2,0c-0.9,0-1.6,0.6-1.6,1.4c0,0.6,0.4,1.1,1,1.3L96.9,238.3z
	 M352,154.4v-4l2.4,0.1L352,154.4z M351.9,138.6l2.4,3.9l-2.4,0.1V138.6z M351.8,143.8h2.8v5.5h-2.8V143.8z M351.1,153.8v1.8h-1.8
	v-1.8H351.1z M351,153.4h-1.8V149h1.8V153.4z M351,148.1h-1.8v-2.8h1.8V148.1z M349,137.8h1.8v2.8H349V137.8z M349,141.3h1.8v3.1
	H349V141.3z M346.6,137.8h1.8v4.4h-1.8V137.8z M348.4,155.6h-1.8v-2.8h1.8V155.6z M348.4,152.3h-1.8v-4.4h1.8V152.3z M348.5,147.1
	h-1.8v-4.4h1.8V147.1z M364.4,185H364v12.5h-1.1v0.7l-8.3-30.6h-0.7v-1.8l-5-0.1v-3.2l1.3-0.2l0.1-3.7h2.4l0.3-1.2h11.5L364.4,185
	L364.4,185z M690.8,167.1l-0.8-3.9h6l0.7,3.9H690.8z M708.3,167.1l2-4h5.8l-2,3.9h-5.8V167.1z M716,167.1l2.2-3.9h5.7l-2,3.9H716z
	 M1007.1,214.6l-5.9,0.5l8.6-16.6v12.1l0,0L1007.1,214.6z"/>
</svg>
